<svg xmlns="http://www.w3.org/2000/svg" width="146" height="232" viewBox="0 0 146 232"><g><g><path d="M.189 0v203.495h117.766l27.425 28.398V0z"/></g><g><path fill="#fff" d="M26.81 132.974v2.1h-4.916v15.824h-2.151v-17.924z"/></g><g><path fill="#fff" d="M37.36 132.974v11.702h-5.377v6.222h-2.15v-17.924zm-5.377 9.602h3.226v-7.502h-3.226z"/></g><g><path fill="#fff" d="M42.932 132.974v9.602h3.15v-9.602h2.151v17.924h-7.452v-2.1h5.3v-4.122h-5.3v-11.702z"/></g><g><path fill="#fff" d="M55.438 141.936l3.354 3.943v5.02h-7.22v-3.688h2.15v1.587h2.92v-2.407l-3.739-4.455 3.739-4.456v-2.406h-2.92v1.51h-2.15v-3.61h7.22v5.02z"/></g><g><path fill="#fff" d="M70.351 132.974v17.924h-2.15v-12.163l-3.432 12.163h-2.407v-17.924h2.151v12.163l3.431-12.163z"/></g><g><path fill="#fff" d="M76.03 132.974v7.784h3.226v-7.784h2.151v17.924h-2.15v-8.04H76.03v8.04h-2.15v-17.924z"/></g><g><path fill="#fff" d="M87.086 150.898h-2.15v-17.924h2.15v7.81h1.408l2.305-7.81h2.304l-2.74 8.655 2.868 9.269h-2.355l-2.382-8.014h-1.408z"/></g><g><path fill="#fff" d="M102.137 132.974l1.203 17.924h-2.125l-.307-5.095H97.86l-.308 5.095h-2.125l1.203-17.924zm-1.383 10.729l-.487-8.63H98.5l-.487 8.63z"/></g><g><path fill="#fff" d="M110.173 150.898v-3.662h2.05v1.614h2.61v-6.35h-3.098v-2.05l2.765-5.427h-4.327v-2.05h6.708v2.05l-3.046 5.428h3.046v10.447z"/></g><g><path fill="#fff" d="M126.257 150.898h-6.709v-17.924h6.709zm-4.66-2.048h2.612v-13.827h-2.612z"/></g><g><path fill="#fff" d="M87.606 110.414l-14.134 12.778-14.133-12.778v-7.58l-8.634-8.372 4.546-7.954.586-18.678 11.214 8.93h12.842l11.214-8.93.586 18.677 4.547 7.955-8.634 8.372zm-20.76-32.61l-2.947 1.733 2.972 7.25L73 89.994v-7.288zm7.098 4.902v7.288l6.129-3.207 2.98-7.246-2.955-1.737zM94.716 93.7l-3.758-6.575-5.007.225-4.113 3.644zm-15.507 13.97l-5.737-1.991-5.737 1.992 5.737 5.04zM68.917 88.924l-2.543-1.33-3.88-.175 3.675 3.255zm-12.078-2.705l8.944.403-2.649-6.462zm13.38 3.387l-2.81 17.18L73 104.844V91.06zm9.317 17.18l-2.811-17.18-2.781 1.455v13.784zm1.626-20.164l8.943-.403-6.295-6.06zm-3.135 2.302l2.748 1.75 3.675-3.255-3.879.175zm12.689-3.428l-.477-15.22-5.99 8.995zM88.6 71.033l-7.712 6.143 2.597 1.537zm-22.546 6.14l-7.71-6.14 5.109 7.67zm-9.349-6.897l-.477 15.222 6.474-6.217zm-.719 16.849L52.228 93.7l12.879-2.706-4.113-3.644zm-3.723 7.533l9.846 9.546-3.979-10.78zm12.687 16.308l1.407-3.6 2.865-17.518-2.846 1.813-.156.064-7.156 1.504 4.613 12.495.021.02zm.478 1.372L73 116.8v-3.246l-5.991-5.263zm8.516 4.462l7.573-4.462-1.575-4.054-5.998 5.27zm9.302-11.055l.021-.021 4.613-12.495-7.155-1.504-.157-.064-2.846-1.813 2.866 17.518 1.406 3.6zm1.589-1.541l9.846-9.546-5.867-1.233zm-16.598-26.5l5.235 4.17 5.235-4.17zm-7.954 32.29l4.086 3.695v-1.093l-1.525-6.364-2.561-2.483zm13.189 11.925l8.158-7.376v-1.176l-8.158 4.807-8.158-4.807v1.176zm13.189-11.924v-6.246l-2.561 2.483-1.525 6.365v1.092z"/></g><g><path fill="#fff" d="M53.923 81.49l-.67-.433-23.51 36.563h34.305v-.798H31.204z"/></g><g><path fill="#fff" d="M93.717 81.057l-.672.432 22.719 35.333H82.92v.798h34.305z"/></g><g><path fill="#fff" d="M73.484 51.067l11.96 18.6.672-.43L73.484 49.6 60.853 69.237l.67.43z"/></g><g><path fill="#fff" d="M44.303 164.818c-1.494 0-2.156-1.16-2.156-2.419 0-1.259.662-2.419 2.156-2.419 1.495 0 2.156 1.16 2.156 2.42 0 1.258-.66 2.418-2.156 2.418zm0-4.348c-.996 0-1.53.86-1.53 1.93 0 1.068.534 1.928 1.53 1.928.997 0 1.531-.86 1.531-1.929s-.534-1.929-1.53-1.929z"/></g><g><path fill="#fff" d="M51.132 163.866h-.018c-.253.653-.643.952-1.295.952-1.14 0-1.712-1.05-1.712-2.419 0-1.404.49-2.419 1.712-2.419.88 0 1.196.698 1.295.951h.018v-3.016h.571v3.016h.018c.1-.253.417-.95 1.296-.95 1.223 0 1.712 1.014 1.712 2.418 0 1.368-.57 2.42-1.712 2.42-.653 0-1.042-.3-1.296-.953h-.018v2.745h-.57zm-1.204.462c.896 0 1.204-1.086 1.204-1.929s-.308-1.929-1.204-1.929c-.95 0-1.196 1.032-1.196 1.93 0 .896.245 1.928 1.196 1.928zm2.98 0c.951 0 1.196-1.032 1.196-1.929s-.245-1.929-1.196-1.929c-.897 0-1.205 1.086-1.205 1.93 0 .842.308 1.928 1.205 1.928z"/></g><g><path fill="#fff" d="M59.764 164.71v-3.996l-2.21 3.995h-.825v-4.62h.571v3.977l2.192-3.977h.843v4.62z"/></g><g><path fill="#fff" d="M64.682 160.47c-1.114 0-1.739.806-1.739 1.929 0 1.051.634 1.93 1.676 1.93a2.99 2.99 0 0 0 1.042-.208l.054.534c-.39.136-.752.163-1.187.163-1.486 0-2.21-1.132-2.21-2.419 0-1.422.915-2.418 2.282-2.418.553 0 .952.126 1.115.181l-.045.543c-.309-.136-.68-.235-.988-.235z"/></g><g><path fill="#fff" d="M71.538 160.09l-.036.841h.018c.145-.253.498-.95 1.477-.95 1.358 0 1.902 1.014 1.902 2.418 0 1.368-.634 2.42-1.902 2.42-.725 0-1.16-.3-1.44-.898h-.019v2.69h-.57v-6.522zm1.368 4.238c1.087 0 1.368-1.032 1.368-1.929s-.28-1.929-1.368-1.929c-1.014 0-1.368 1.086-1.368 1.93 0 .842.354 1.928 1.368 1.928z"/></g><g><path fill="#fff" d="M76.62 162.399c0-1.413.778-2.418 1.947-2.418 1.304 0 1.84 1.051 1.84 2.291v.29h-3.163c0 .979.526 1.767 1.522 1.767.417 0 1.024-.172 1.295-.344v.579a3.785 3.785 0 0 1-1.34.254c-1.53 0-2.102-1.033-2.102-2.419zm.624-.326h2.536c0-.806-.326-1.603-1.177-1.603-.842 0-1.359.843-1.359 1.603z"/></g><g><path fill="#fff" d="M85.152 160.09v4.13h1.613v-4.13h.57v4.62h-4.937v-4.62h.57v4.13h1.613v-4.13z"/></g><g><path fill="#fff" d="M92.253 163.966c-.253.553-.897.852-1.467.852-1.314 0-1.522-.888-1.522-1.305 0-1.549 1.649-1.62 2.844-1.62h.109v-.237c0-.788-.281-1.186-1.051-1.186-.48 0-.933.108-1.36.38v-.552a3.63 3.63 0 0 1 1.36-.318c1.142 0 1.622.517 1.622 1.721v2.04c0 .37 0 .651.045.968h-.561v-.743zm-.2-1.585c-.987 0-2.164.1-2.164 1.114 0 .607.435.834.96.834 1.34 0 1.368-1.169 1.368-1.667v-.28z"/></g><g><path fill="#fff" d="M94.77 162.399c0-1.413.78-2.418 1.948-2.418 1.304 0 1.84 1.051 1.84 2.291v.29h-3.163c0 .979.526 1.767 1.522 1.767.417 0 1.024-.172 1.295-.344v.579a3.785 3.785 0 0 1-1.34.254c-1.53 0-2.102-1.033-2.102-2.419zm.625-.326h2.536c0-.806-.325-1.603-1.177-1.603-.842 0-1.359.843-1.359 1.603z"/></g><g><path fill="#fff" d="M99.924 160.09h3.524v.48h-1.477v4.14h-.57v-4.14h-1.477z"/></g><g><path fill="none" stroke="#000" stroke-miterlimit="20" stroke-width=".9" d="M768.718 951.181v0h107.783v0z"/></g><g><path fill="none" stroke="#000" stroke-miterlimit="20" stroke-width=".9" d="M1262.432 951.181v0h40.392v0z"/></g><g><path fill="none" stroke="#000" stroke-miterlimit="20" stroke-width=".98" d="M768.719 159.763v0h263.542v0z"/></g><g><path fill="none" stroke="#000" stroke-miterlimit="20" stroke-width=".9" d="M217.788 951.18v0h189.538v0z"/></g></g></svg>