<svg xmlns="http://www.w3.org/2000/svg" width="72" height="73" viewBox="0 0 72 73"><g><g><path fill="none" stroke="#000" stroke-miterlimit="20" d="M21.958 70.558v0H1.021v0V.592v0h69.967v69.966H50.066v0"/></g><g><path fill="#ed5748" d="M29.093 27.888l-10.09-9.205a23.03 23.03 0 0 0-6.108 15.65c0 3.192.663 6.403 1.762 9.537l13.481-14.778c.286-.428.606-.83.955-1.204z"/></g><g><path fill="#2c85eb" d="M29.093 27.888c.301-.322.624-.624.966-.902l13.291-14.57a23.089 23.089 0 0 0-7.345-1.192c-6.725 0-12.779 2.874-17.002 7.459z"/></g><g><path fill="#fcc60e" d="M14.657 43.87c2.174 6.202 6.06 12.098 9.927 16.93l17.698-19.402a9.411 9.411 0 0 1-6.277 2.39c-5.22 0-9.453-4.234-9.453-9.455 0-1.939.584-3.74 1.586-5.24z"/></g><g><path fill="#5695f6" d="M57.18 25.068a23.181 23.181 0 0 0-13.83-12.652l-13.29 14.57A9.453 9.453 0 0 1 43.621 39.93z"/></g><g><path fill="#48b564" d="M36.005 72.784S59.114 53.2 59.114 34.334c0-3.296-.691-6.43-1.934-9.265L43.622 39.93a9.518 9.518 0 0 1-1.34 1.468l-17.698 19.4c5.733 7.163 11.42 11.985 11.42 11.985z"/></g></g></svg>