<svg xmlns="http://www.w3.org/2000/svg" width="92" height="39" viewBox="0 0 92 39"><g><g><path fill="none" stroke="#000" stroke-miterlimit="20" stroke-width=".5" d="M12.008 37.597v0H1.043v0V.952v0h36.644v36.645H26.729v0"/></g><g><path fill="#ed5748" d="M15.745 15.249l-5.284-4.82a12.055 12.055 0 0 0-3.2 8.196c0 1.67.348 3.353.923 4.995l7.06-7.74c.15-.224.318-.435.5-.631z"/></g><g><path fill="#2c85eb" d="M15.745 15.249a5.13 5.13 0 0 1 .506-.472l6.96-7.631a12.115 12.115 0 0 0-3.846-.624 12.067 12.067 0 0 0-8.904 3.907z"/></g><g><path fill="#fcc60e" d="M8.184 23.62c1.14 3.247 3.173 6.335 5.2 8.866l9.268-10.16a4.952 4.952 0 0 1-7.407-6.446z"/></g><g><path fill="#5695f6" d="M30.455 13.772a12.141 12.141 0 0 0-7.243-6.626l-6.961 7.631a4.95 4.95 0 0 1 7.103 6.779z"/></g><g><path fill="#48b564" d="M19.365 38.762s12.103-10.257 12.103-20.138c0-1.725-.362-3.366-1.013-4.852l-7.101 7.784c-.206.28-.442.538-.701.77l-9.27 10.16c3.003 3.751 5.982 6.276 5.982 6.276z"/></g><g><g><text dominant-baseline="text-before-edge" transform="translate(56 5)"><tspan font-family="'Circe','Circe-Regular'" font-size="12">google</tspan></text></g></g><g><g><text dominant-baseline="text-before-edge" transform="translate(56 19)"><tspan font-family="'Circe,sans-serif','Circe-Regular,sans-serif'" font-size="12">map</tspan></text></g></g></g></svg>
