<svg xmlns="http://www.w3.org/2000/svg" width="18" height="18" viewBox="0 0 18 18"><g><g><path fill="none" stroke="#fff" stroke-miterlimit="20" d="M13.697 16.905v0H4.935a3.527 3.527 0 0 1-3.527-3.527V4.616a3.527 3.527 0 0 1 3.527-3.527h8.762a3.527 3.527 0 0 1 3.527 3.527v8.762a3.527 3.527 0 0 1-3.527 3.527z"/></g><g><path fill="#fff" d="M14.426 4.125a.976.976 0 1 1-1.953.002.976.976 0 0 1 1.953-.002z"/></g><g><path fill="none" stroke="#fff" stroke-miterlimit="20" d="M12.994 8.997a3.678 3.678 0 1 0-7.355 0 3.678 3.678 0 0 0 7.355 0z"/></g></g></svg>