<svg xmlns="http://www.w3.org/2000/svg" width="108" height="118" viewBox="0 0 108 118"><g><g><path d="M7.81 83.499v2.1H2.894v15.824H.743V83.499z"/></g><g><path d="M18.36 83.499v11.702h-5.377v6.222h-2.15V83.499zm-5.377 9.602h3.226v-7.502h-3.226z"/></g><g><path d="M23.932 83.499v9.602h3.15v-9.602h2.15v17.924h-7.45v-2.1h5.3v-4.122h-5.3V83.499z"/></g><g><path d="M36.438 92.46l3.354 3.944v5.019h-7.22v-3.687h2.15v1.587h2.92v-2.407l-3.739-4.455 3.738-4.456v-2.406h-2.919v1.51h-2.15v-3.61h7.22v5.019z"/></g><g><path d="M51.351 83.499v17.924h-2.15V89.26l-3.432 12.163h-2.407V83.499h2.151v12.163l3.431-12.163z"/></g><g><path d="M57.03 83.499v7.784h3.226v-7.784h2.151v17.924h-2.15v-8.04H57.03v8.04h-2.15V83.499z"/></g><g><path d="M68.086 101.423h-2.15V83.499h2.15v7.81h1.408l2.305-7.81h2.304l-2.74 8.655 2.87 9.269h-2.357l-2.382-8.014h-1.408z"/></g><g><path d="M83.137 83.499l1.203 17.924h-2.125l-.307-5.095H78.86l-.308 5.095h-2.125l1.203-17.924zm-1.383 10.729l-.487-8.63H79.5l-.487 8.63z"/></g><g><path d="M91.173 101.423V97.76h2.049v1.614h2.611v-6.35h-3.098v-2.05l2.765-5.427h-4.327v-2.05h6.709v2.05l-3.047 5.428h3.047v10.447z"/></g><g><path d="M107.257 101.423h-6.709V83.499h6.709zm-4.66-2.049h2.612V85.547h-2.612z"/></g><g><path d="M68.605 60.938L54.472 73.716 40.339 60.938v-7.58l-8.634-8.372 4.546-7.954.586-18.678 11.214 8.931h12.842l11.214-8.93.586 18.677 4.547 7.954-8.635 8.372zm-20.759-32.61l-2.947 1.733 2.972 7.25L54 40.518V33.23zm7.099 4.902v7.288l6.128-3.207 2.98-7.246-2.955-1.737zm20.771 10.994l-3.758-6.575-5.007.225-4.113 3.644zM60.209 58.195l-5.737-1.99-5.737 1.99 5.737 5.04zM49.917 39.447l-2.543-1.33-3.88-.175 3.675 3.255zm-12.078-2.705l8.944.403-2.649-6.462zm13.38 3.387l-2.81 17.18L54 55.37V41.583zm9.317 17.18l-2.811-17.18-2.78 1.455v13.784zm1.626-20.164l8.943-.403-6.295-6.059zm-3.134 2.302l2.747 1.75 3.675-3.255-3.88.175zm12.688-3.428L71.239 20.8l-5.99 8.994zM69.6 21.56L61.888 27.7l2.597 1.537zm-22.546 6.14l-7.71-6.14 5.109 7.67zM37.705 20.8l-.477 15.222 6.475-6.217zm-.719 16.85l-3.758 6.574 12.879-2.706-4.113-3.644zm-3.723 7.532l9.846 9.546L39.13 43.95zM45.95 61.49l1.407-3.6 2.865-17.518-2.846 1.813-.156.064-7.156 1.504 4.613 12.495.021.021zm.478 1.372L54 67.324v-3.246l-5.991-5.263zm8.517 4.462l7.572-4.462-1.575-4.054-5.997 5.27zm9.301-11.055l.021-.02 4.613-12.496-7.155-1.504-.157-.064-2.846-1.813 2.866 17.518 1.407 3.6zm1.589-1.54l9.846-9.547-5.867-1.233zm-16.598-26.5l5.235 4.17 5.235-4.17zm-7.954 32.29l4.086 3.694V63.12l-1.525-6.364-2.561-2.483zm13.189 11.924l8.159-7.376v-1.176l-8.159 4.807-8.158-4.807v1.176zM67.661 60.52v-6.246L65.1 56.756l-1.525 6.365v1.092z"/></g><g><path d="M34.923 32.014l-.67-.432-23.51 36.563h34.305v-.798H12.204z"/></g><g><path d="M74.716 31.582l-.672.432 22.72 35.333H63.92v.798h34.305z"/></g><g><path d="M54.484 1.592l11.96 18.6.672-.43L54.484.125 41.853 19.762l.67.43z"/></g><g><path d="M25.303 115.343c-1.495 0-2.156-1.16-2.156-2.419 0-1.259.661-2.419 2.156-2.419s2.156 1.16 2.156 2.42c0 1.258-.66 2.418-2.156 2.418zm0-4.348c-.996 0-1.53.86-1.53 1.93 0 1.068.534 1.928 1.53 1.928s1.531-.86 1.531-1.929-.535-1.929-1.53-1.929z"/></g><g><path d="M32.133 114.392h-.019c-.252.652-.642.951-1.294.951-1.142 0-1.713-1.05-1.713-2.419 0-1.404.49-2.419 1.712-2.419.88 0 1.196.698 1.295.951h.019v-3.016h.57v3.016h.018c.1-.253.418-.95 1.297-.95 1.221 0 1.711 1.014 1.711 2.418 0 1.368-.57 2.42-1.711 2.42-.654 0-1.043-.3-1.297-.952h-.017v2.744h-.572zm-1.206.461c.897 0 1.205-1.086 1.205-1.929s-.307-1.929-1.204-1.929c-.951 0-1.195 1.032-1.195 1.93 0 .896.244 1.928 1.195 1.928zm2.981 0c.951 0 1.196-1.032 1.196-1.929s-.245-1.929-1.196-1.929c-.897 0-1.205 1.086-1.205 1.93 0 .842.308 1.928 1.205 1.928z"/></g><g><path d="M40.764 115.234v-3.995l-2.21 3.995h-.825v-4.62h.571v3.977l2.192-3.977h.843v4.62z"/></g><g><path d="M45.682 110.995c-1.114 0-1.739.806-1.739 1.929 0 1.05.634 1.93 1.676 1.93a2.98 2.98 0 0 0 1.041-.208l.055.534c-.39.136-.752.163-1.187.163-1.486 0-2.21-1.132-2.21-2.42 0-1.421.915-2.417 2.282-2.417.553 0 .952.126 1.115.18l-.046.544c-.308-.135-.679-.235-.987-.235z"/></g><g><path d="M52.538 110.614l-.036.842h.018c.145-.253.498-.95 1.477-.95 1.358 0 1.902 1.014 1.902 2.418 0 1.368-.634 2.42-1.902 2.42-.725 0-1.16-.3-1.44-.898h-.019v2.69h-.57v-6.522zm1.368 4.24c1.087 0 1.368-1.033 1.368-1.93s-.28-1.929-1.368-1.929c-1.015 0-1.368 1.086-1.368 1.93 0 .842.353 1.928 1.368 1.928z"/></g><g><path d="M57.62 112.924c0-1.413.778-2.418 1.947-2.418 1.304 0 1.84 1.05 1.84 2.29v.292h-3.163c0 .978.526 1.766 1.522 1.766.417 0 1.024-.172 1.296-.344v.579a3.768 3.768 0 0 1-1.34.254c-1.532 0-2.103-1.033-2.103-2.42zm.624-.326h2.537c0-.806-.326-1.603-1.178-1.603-.842 0-1.359.843-1.359 1.603z"/></g><g><path d="M66.152 110.614v4.131h1.613v-4.131h.57v4.62h-4.937v-4.62h.57v4.131h1.613v-4.131z"/></g><g><path d="M73.253 114.491c-.253.553-.897.852-1.467.852-1.314 0-1.522-.888-1.522-1.305 0-1.549 1.649-1.621 2.844-1.621h.109v-.236c0-.788-.281-1.186-1.051-1.186-.48 0-.933.108-1.36.38v-.552a3.63 3.63 0 0 1 1.36-.318c1.142 0 1.622.517 1.622 1.722v2.038c0 .371 0 .652.045.969h-.561v-.743zm-.2-1.585c-.986 0-2.164.1-2.164 1.114 0 .607.435.834.96.834 1.34 0 1.368-1.169 1.368-1.667v-.281z"/></g><g><path d="M75.77 112.924c0-1.413.779-2.418 1.948-2.418 1.304 0 1.839 1.05 1.839 2.29v.292h-3.162c0 .978.526 1.766 1.522 1.766.417 0 1.024-.172 1.296-.344v.579a3.768 3.768 0 0 1-1.341.254c-1.531 0-2.102-1.033-2.102-2.42zm.625-.326h2.537c0-.806-.326-1.603-1.178-1.603-.842 0-1.359.843-1.359 1.603z"/></g><g><path d="M80.924 110.614h3.524v.48H82.97v4.14h-.57v-4.14h-1.477z"/></g></g></svg>