<svg xmlns="http://www.w3.org/2000/svg" width="122" height="41" viewBox="0 0 122 41"><g><g><path fill="none" stroke="#000" stroke-miterlimit="20" stroke-width=".5" d="M114.535 24.916v0l6.798-10.58v0l-6.798-10.579v0"/></g><g><path fill="none" stroke="#000" stroke-miterlimit="20" stroke-width=".5" d="M121.333 14.337H92.798"/></g><g><path fill="none" stroke="#000" stroke-miterlimit="20" stroke-width=".5" d="M7.465 3.757v0L.667 14.337v0l6.798 10.58v0"/></g><g><path fill="none" stroke="#000" stroke-miterlimit="20" stroke-width=".5" d="M.667 14.337h28.536"/></g><g><path fill="none" stroke="#000" stroke-miterlimit="20" stroke-width=".5" d="M61.806 40.455v0L50.93 32.047v0l-3.007-6.821v0L52 18.7v0L45.764 4.556v0l1.977-3.057v0l3.437.67v0l6.719 15.237v0"/></g><g><path fill="none" stroke="#000" stroke-miterlimit="20" stroke-width=".5" d="M52 18.7l3.782 8.575"/></g><g><path fill="none" stroke="#000" stroke-miterlimit="20" stroke-width=".5" d="M55.884 12.842v0l1.977-3.057v0l3.437.67v0l2.013 4.563v0"/></g><g><path fill="none" stroke="#000" stroke-miterlimit="20" stroke-width=".5" d="M61.762 11.507v0l1.976-3.057v0l3.438.67v0l1.548 3.512v0"/></g><g><path fill="none" stroke="#000" stroke-miterlimit="20" stroke-width=".5" d="M67.582 10.041v0l1.864-2.54v0l3.132.337v0l3.787 8.589v0l2.379 11.701v0l1.793 4.067v0"/></g></g></svg>