<svg xmlns="http://www.w3.org/2000/svg" width="72" height="73" viewBox="0 0 72 73"><g><g><path fill="none" stroke="#000" stroke-miterlimit="20" d="M22.251 70.558v0H1.314v0V.592v0h69.967v69.966H50.359v0"/></g><g><path fill="#ff3233" d="M13.188 34.334c0 6.592 2.823 13.271 6.495 19.173l10.74-11.771a9.431 9.431 0 0 1-3.577-7.402c0-5.222 4.232-9.454 9.452-9.454a9.419 9.419 0 0 1 6.832 2.926l9.214-10.1a23.028 23.028 0 0 0-16.047-6.481c-12.761 0-23.108 10.346-23.108 23.109z"/></g><g><path fill="#e20000" d="M59.407 34.334a23.04 23.04 0 0 0-7.053-16.619l-9.213 10.1a9.453 9.453 0 0 1-12.707 13.929L19.692 53.522c6.835 10.98 16.606 19.262 16.606 19.262s23.11-19.583 23.11-38.45z"/></g></g></svg>