<svg xmlns="http://www.w3.org/2000/svg" width="72" height="73" viewBox="0 0 72 73"><g><g><path fill="none" stroke="#fff" stroke-miterlimit="20" d="M22.27 70.88v0H1.332v0V.912v0H71.3V70.88H50.377v0"/></g><g><path fill="#ed5748" d="M29.405 28.209l-10.09-9.205a23.03 23.03 0 0 0-6.108 15.65c0 3.192.663 6.403 1.762 9.537l13.48-14.778c.287-.428.607-.83.956-1.204z"/></g><g><path fill="#2c85eb" d="M29.405 28.209a9.47 9.47 0 0 1 .966-.902l13.29-14.57a23.09 23.09 0 0 0-7.345-1.192c-6.725 0-12.778 2.874-17.001 7.459z"/></g><g><path fill="#fcc60e" d="M14.969 44.191c2.174 6.201 6.06 12.098 9.927 16.93l17.697-19.402A9.453 9.453 0 0 1 28.45 29.413z"/></g><g><path fill="#5695f6" d="M57.492 25.389a23.177 23.177 0 0 0-13.83-12.651L30.37 27.307a9.453 9.453 0 0 1 13.562 12.945z"/></g><g><path fill="#48b564" d="M36.316 73.104s23.11-19.584 23.11-38.45c0-3.295-.692-6.428-1.935-9.265L43.933 40.251a9.468 9.468 0 0 1-1.339 1.468L24.895 61.12c5.733 7.162 11.421 11.984 11.421 11.984z"/></g></g></svg>