<svg xmlns="http://www.w3.org/2000/svg" width="18" height="18" viewBox="0 0 18 18"><g><g><path fill="none" stroke="#fff" stroke-miterlimit="20" d="M13.147 16.69v0H4.385a3.527 3.527 0 0 1-3.527-3.527V4.4A3.527 3.527 0 0 1 4.385.874h8.762A3.527 3.527 0 0 1 16.674 4.4v8.762a3.527 3.527 0 0 1-3.527 3.527z"/></g><g><path fill="#fff" d="M13.875 3.91a.977.977 0 1 1-1.954 0 .977.977 0 0 1 1.954 0z"/></g><g><path fill="none" stroke="#fff" stroke-miterlimit="20" d="M12.444 8.782a3.678 3.678 0 1 0-7.356 0 3.678 3.678 0 0 0 7.356 0z"/></g></g></svg>