<svg xmlns="http://www.w3.org/2000/svg" width="219" height="73" viewBox="0 0 219 73"><g><g><path fill="none" stroke="#000" stroke-miterlimit="20" d="M33.342 71.251v0h11.456v0-16.138 0h8.966v0-11.456 0h-8.966v0-17.234 0H33.342v17.234H16.307v0L41.51 1.52v0H28.36v0L1.465 46.646v8.467h31.878v0z"/></g><g><path fill="none" stroke="#000" stroke-miterlimit="20" d="M84.744 38.775c7.371 0 11.257 5.082 11.257 11.457 0 5.58-3.886 10.66-10.26 10.66-8.369 0-12.852-6.278-12.852-14.246 1.793-3.787 5.578-7.87 11.855-7.87zm.896 33.572c11.158 0 22.514-8.269 22.514-22.912 0-12.75-8.866-21.319-19.525-21.319-6.974 0-11.457 2.491-14.345 6.476C77.87 21.143 88.33 12.477 99.686 9.09L95.006.423c-15.244 3.785-34.27 20.52-34.27 46.123 0 14.046 9.363 25.801 24.904 25.801z"/></g><g><path fill="none" stroke="#000" stroke-miterlimit="20" d="M139.532 11.481c7.97 0 11.158 7.67 11.158 24.904 0 17.233-2.989 25.004-10.958 25.004-7.47 0-11.357-7.97-11.357-25.004 0-16.836 3.288-24.904 11.157-24.904zm.2 60.567c15.94 0 23.112-14.345 23.112-35.663 0-21.318-7.372-35.663-23.312-35.663-16.038 0-23.41 14.345-23.41 35.663 0 21.318 7.571 35.663 23.61 35.663z"/></g><g><path fill="none" stroke="#000" stroke-miterlimit="20" d="M194.72 11.481c7.969 0 11.157 7.67 11.157 24.904 0 17.233-2.99 25.004-10.958 25.004-7.471 0-11.357-7.97-11.357-25.004 0-16.836 3.288-24.904 11.158-24.904zm.199 60.567c15.939 0 23.112-14.345 23.112-35.663 0-21.318-7.372-35.663-23.311-35.663-16.04 0-23.411 14.345-23.411 35.663 0 21.318 7.57 35.663 23.61 35.663z"/></g></g></svg>