<svg xmlns="http://www.w3.org/2000/svg" width="222" height="60" viewBox="0 0 222 60"><g><g><path fill="none" stroke="#000" stroke-miterlimit="20" d="M19.79 32.05c5.903 0 9.015 4.07 9.015 9.176 0 4.468-3.112 8.537-8.219 8.537-6.702 0-10.292-5.026-10.292-11.41 1.436-3.031 4.468-6.302 9.495-6.302zm.717 26.889c8.936 0 18.032-6.623 18.032-18.351 0-10.213-7.102-17.074-15.639-17.074-5.585 0-9.175 1.994-11.489 5.186 2.872-10.771 11.25-17.713 20.345-20.426l-3.75-6.941C15.8 4.365.56 17.769.56 38.273c0 11.25 7.5 20.666 19.947 20.666z"/></g><g><path fill="none" stroke="#000" stroke-miterlimit="20" d="M48.032 31.891c1.675-.718 5.585-1.436 9.175-1.436 7.5 0 11.888 4.31 11.888 9.894 0 5.504-3.83 9.414-9.175 9.414-4.229 0-8.936-2.234-11.33-5.745l-5.266 6.942c3.431 5.266 10.373 7.978 16.356 7.978 10.612 0 19.23-6.94 19.23-18.988 0-11.01-7.66-17.793-17.554-17.793-1.117 0-2.314.16-3.19.32l1.595-11.09v0h18.35v0V2.21v0H51.702v0z"/></g><g><path fill="none" stroke="#000" stroke-miterlimit="20" d="M104.68 10.19c6.383 0 8.936 6.143 8.936 19.946s-2.394 20.026-8.777 20.026c-5.984 0-9.096-6.382-9.096-20.026 0-13.484 2.634-19.946 8.937-19.946zm.16 48.509c12.765 0 18.51-11.49 18.51-28.563 0-17.074-5.904-28.563-18.67-28.563-12.846 0-18.75 11.489-18.75 28.563 0 17.074 6.063 28.563 18.91 28.563z"/></g><g><path fill="none" stroke="#000" stroke-miterlimit="20" d="M148.8 58.061v0h9.176v0-21.94 0l10.93 13.403v0h.24v0l10.61-13.404v21.941h9.177v0-35.904 0h-8.06v0l-11.568 15v0l-12.207-15v0H148.8v0z"/></g><g><path fill="none" stroke="#000" stroke-miterlimit="20" d="M196.432 30.136v0h24.335v0-6.782 0h-13.963c3.83-1.595 12.687-5.665 12.687-12.606 0-5.186-3.83-8.856-11.17-8.856-6.543 0-10.852 3.27-11.73 8.457l6.623 2.314c.319-1.915 2.074-3.99 4.308-3.99 2.075 0 3.43 1.197 3.43 3.112 0 4.069-8.376 8.856-14.52 12.527z"/></g></g></svg>