<svg xmlns="http://www.w3.org/2000/svg" width="18" height="18" viewBox="0 0 18 18"><g><g><path fill="none" stroke="#fff" stroke-miterlimit="20" d="M14.298 3.39a7.856 7.856 0 0 0-11.112 0 7.86 7.86 0 0 0-1.566 8.88c.377.809-1.347 3.813-.68 4.48.666.667 3.67-1.058 4.477-.681a7.86 7.86 0 0 0 8.88-12.678z"/></g><g><path fill="none" stroke="#fff" stroke-miterlimit="20" d="M12.912 12.567v0l-.32.314v0l-.077.06a2.194 2.194 0 0 1-1.1.449 1.33 1.33 0 0 1-.155.007c-.515 0-2.365-.173-4.577-2.385-1.868-1.867-2.556-3.237-2.376-4.73.021-.182.066-.363.138-.553.078-.2.182-.384.31-.547l.031-.053v0l.343-.344a.656.656 0 0 1 .462-.188c.166 0 .316.06.425.168L7.41 6.158a.63.63 0 0 1-.019.888l-.754.754v0l.111.198c.25.449.59 1.063 1.24 1.713.647.648 1.26.988 1.707 1.236l.203.113v0l.753-.753a.655.655 0 0 1 .462-.187c.166 0 .318.059.426.168l1.393 1.393c.24.24.23.637-.019.886z"/></g></g></svg>