<svg xmlns="http://www.w3.org/2000/svg" width="39" height="39" viewBox="0 0 39 39"><g><g><path fill="none" stroke="#000" stroke-miterlimit="20" stroke-width=".5" d="M12.43 37.597v0H1.467v0V.952v0H38.11v36.645H27.152v0"/></g><g><path fill="#ff3233" d="M7.685 18.625c0 3.453 1.479 6.95 3.4 10.042L16.71 22.5a4.95 4.95 0 1 1 6.657-7.296l4.825-5.288a12.06 12.06 0 0 0-8.404-3.395c-6.685 0-12.103 5.419-12.103 12.103z"/></g><g><path fill="#e20000" d="M31.89 18.625a12.07 12.07 0 0 0-3.692-8.703L23.37 15.21a4.932 4.932 0 0 1 1.368 3.414 4.952 4.952 0 0 1-8.023 3.882l-5.626 6.167c3.58 5.75 8.697 10.089 8.697 10.089S31.89 28.506 31.89 18.625z"/></g></g></svg>