<svg xmlns="http://www.w3.org/2000/svg" width="89" height="146" viewBox="0 0 89 146"><g><g><path d="M0-.001v145.249l18.983-15.54h69.944V-.002z"/></g><g><path fill="none" stroke="#fff" stroke-miterlimit="20" stroke-width=".5" d="M111.11 88.512v0h105.3v0z"/></g><g><path fill="none" stroke="#fff" stroke-miterlimit="20" stroke-width=".5" d="M111.111 66.513v0h134.07v0z"/></g><g><path fill="none" stroke="#fff" stroke-miterlimit="20" stroke-width=".5" d="M140.76 110.511v0h22.44v0z"/></g><g><path fill="#fff" d="M15.363 75.915v1.3H12.32v9.794h-1.332V75.915z"/></g><g><path fill="#fff" d="M21.894 75.916v7.243h-3.329v3.851h-1.331V75.916zm-3.329 5.943h1.997v-4.644h-1.997z"/></g><g><path fill="#fff" d="M25.343 75.915v5.943h1.949v-5.943h1.332V87.01H24.01v-1.3h3.28v-2.55h-3.28v-7.244z"/></g><g><path fill="#fff" d="M33.084 81.463l2.075 2.44v3.107h-4.468v-2.282h1.33v.982h1.808v-1.49l-2.314-2.757 2.314-2.758v-1.49h-1.807v.935H30.69v-2.234h4.469v3.106z"/></g><g><path fill="#fff" d="M42.315 75.915V87.01h-1.332v-7.528L38.86 87.01h-1.49V75.915h1.33v7.528l2.125-7.527z"/></g><g><path fill="#fff" d="M45.83 75.915v4.818h1.997v-4.818h1.33V87.01h-1.33v-4.976H45.83v4.976h-1.332V75.915z"/></g><g><path fill="#fff" d="M52.673 87.01h-1.331V75.916h1.33v4.834h.873l1.426-4.834h1.427l-1.696 5.357 1.775 5.737h-1.458l-1.474-4.96h-.872z"/></g><g><path fill="#fff" d="M61.989 75.915l.745 11.095h-1.316l-.19-3.154h-1.886l-.19 3.154h-1.316l.745-11.095zm-.856 6.641l-.301-5.34h-1.094l-.301 5.34z"/></g><g><path fill="#fff" d="M66.963 87.01v-2.267h1.268v.999h1.617v-3.93H67.93v-1.268l1.712-3.361h-2.68v-1.267h4.154v1.267l-1.886 3.36h1.886v6.467z"/></g><g><path fill="#fff" d="M76.919 87.01h-4.153V75.916h4.153zm-2.885-1.268h1.617v-8.559h-1.617z"/></g><g><path fill="#fff" d="M52.994 61.951l-8.748 7.909-8.748-7.909v-4.692l-5.345-5.182 2.814-4.923.363-11.562 6.942 5.529h7.948l6.941-5.529.363 11.562 2.814 4.923-5.344 5.182zm-12.85-20.184l-1.824 1.072 1.84 4.488 3.794 1.985V44.8zm4.394 3.033v4.512l3.794-1.985 1.844-4.485-1.829-1.075zm12.857 6.805l-2.326-4.069-3.1.139-2.545 2.256zm-9.598 8.648l-3.55-1.233-3.553 1.233 3.552 3.12zm-6.37-11.604l-1.575-.824-2.4-.108 2.273 2.015zm-7.477-1.675l5.536.25-1.639-4zm8.282 2.097l-1.739 10.634 3.461-1.202v-8.531zM48 59.705l-1.74-10.634-1.72.901v8.531zm1.006-12.481l5.536-.25-3.896-3.75zm-1.939 1.425l1.7 1.083 2.275-2.015-2.402.108zm7.854-2.122l-.296-9.42-3.708 5.567zm-1.31-8.951l-4.774 3.801 1.607.952zm-13.956 3.8l-4.772-3.8 3.162 4.747zm-5.787-4.269l-.295 9.421 4.008-3.848zm-.445 10.429l-2.326 4.069 7.971-1.674-2.545-2.256zm-2.304 4.662l6.094 5.909-2.463-6.672zm7.853 10.095l.87-2.229 1.774-10.842-1.76 1.122-.099.039-4.428.931 2.855 7.734.013.013zm.296.849l4.687 2.762v-2.009l-3.709-3.258zm5.271 2.762l4.687-2.762-.974-2.509-3.713 3.262zm5.758-6.843l.013-.013 2.855-7.734-4.429-.931-.097-.039-1.762-1.122 1.774 10.842.871 2.228zm.983-.954l6.095-5.909-3.632-.763zM41.005 41.705l3.241 2.581 3.24-2.581zm-4.923 19.986l2.53 2.287v-.676l-.945-3.939-1.585-1.537zm8.164 7.381l5.05-4.565v-.728l-5.05 2.975-5.05-2.975v.728zm8.163-7.381v-3.865l-1.585 1.537-.944 3.939v.676z"/></g><g><path fill="#fff" d="M32.146 44.047l-.416-.267-14.551 22.631h21.234v-.493h-20.33z"/></g><g><path fill="#fff" d="M56.777 43.78l-.416.267 14.062 21.871H50.095v.493h21.233z"/></g><g><path fill="#fff" d="M44.253 25.217l7.403 11.514.416-.267-7.819-12.155-7.818 12.155.415.267z"/></g><g><path fill="#fff" d="M26.191 95.626c-.925 0-1.334-.718-1.334-1.497 0-.78.41-1.497 1.334-1.497.926 0 1.335.718 1.335 1.497 0 .779-.409 1.497-1.335 1.497zm0-2.691c-.616 0-.948.532-.948 1.194 0 .662.332 1.194.948 1.194.617 0 .948-.532.948-1.194 0-.662-.33-1.194-.948-1.194z"/></g><g><path fill="#fff" d="M30.418 95.037h-.011c-.156.404-.398.589-.802.589-.706 0-1.059-.65-1.059-1.497 0-.87.303-1.497 1.059-1.497.544 0 .741.432.802.589h.011v-1.867h.354v1.867h.011c.062-.157.258-.59.802-.59.757 0 1.06.629 1.06 1.498 0 .847-.353 1.497-1.06 1.497-.404 0-.645-.185-.802-.59h-.011v1.7h-.354zm-.745.286c.555 0 .745-.673.745-1.194 0-.521-.19-1.194-.745-1.194-.588 0-.74.639-.74 1.194 0 .555.152 1.194.74 1.194zm1.845 0c.588 0 .74-.64.74-1.194 0-.555-.152-1.194-.74-1.194-.556 0-.746.673-.746 1.194 0 .52.19 1.194.746 1.194z"/></g><g><path fill="#fff" d="M35.761 95.559v-2.473l-1.368 2.473h-.51v-2.86h.353v2.462l1.357-2.461h.522v2.859z"/></g><g><path fill="#fff" d="M38.806 92.935c-.69 0-1.077.499-1.077 1.194 0 .65.393 1.195 1.037 1.195.225 0 .432-.051.645-.13l.034.33c-.241.086-.465.102-.734.102-.92 0-1.368-.7-1.368-1.497 0-.88.566-1.497 1.412-1.497.343 0 .589.079.69.113l-.028.336a1.629 1.629 0 0 0-.611-.146z"/></g><g><path fill="#fff" d="M43.05 92.699l-.023.522h.011c.09-.157.308-.59.914-.59.841 0 1.177.629 1.177 1.498 0 .847-.393 1.497-1.177 1.497-.449 0-.718-.185-.892-.555h-.01v1.665h-.354v-4.037zm.846 2.624c.673 0 .846-.64.846-1.194 0-.555-.173-1.194-.846-1.194-.628 0-.847.673-.847 1.194 0 .52.22 1.194.847 1.194z"/></g><g><path fill="#fff" d="M46.194 94.129c0-.875.482-1.497 1.206-1.497.807 0 1.138.65 1.138 1.419v.179H46.58c0 .606.325 1.094.942 1.094.258 0 .634-.107.802-.214v.359a2.342 2.342 0 0 1-.83.157c-.948 0-1.301-.64-1.301-1.497zm.387-.201h1.57c0-.5-.202-.993-.73-.993-.52 0-.84.52-.84.993z"/></g><g><path fill="#fff" d="M51.476 92.7v2.556h.998V92.7h.353v2.86H49.77v-2.86h.353v2.557h.999V92.7z"/></g><g><path fill="#fff" d="M55.872 95.099c-.158.342-.556.527-.91.527-.812 0-.941-.55-.941-.807 0-.96 1.02-1.004 1.76-1.004h.068v-.146c0-.488-.174-.734-.65-.734-.298 0-.578.067-.842.235v-.342c.219-.106.589-.196.842-.196.706 0 1.003.319 1.003 1.066v1.26c0 .23 0 .405.028.6h-.347v-.46zm-.124-.981c-.611 0-1.34.062-1.34.689 0 .376.269.517.594.517.83 0 .847-.724.847-1.032v-.174z"/></g><g><path fill="#fff" d="M57.43 94.129c0-.875.481-1.497 1.205-1.497.807 0 1.138.65 1.138 1.419v.179h-1.957c0 .606.325 1.094.942 1.094.258 0 .633-.107.802-.214v.359a2.346 2.346 0 0 1-.83.157c-.948 0-1.3-.64-1.3-1.497zm.386-.201h1.57c0-.5-.202-.993-.729-.993-.52 0-.84.52-.84.993z"/></g><g><path fill="#fff" d="M60.62 92.7h2.18v.296h-.914v2.562h-.353v-2.562h-.914z"/></g><g><path fill="none" stroke="#000" stroke-miterlimit="20" stroke-width="1.2" d="M63.838 4548.84v0h131.76v0z"/></g><g><path fill="none" stroke="#000" stroke-miterlimit="20" stroke-width="1.2" d="M63.838 4594.968v0h129.647v0z"/></g><g><path fill="none" stroke="#000" stroke-miterlimit="20" stroke-width="1.2" d="M63.838 4641.096v0h168.023v0z"/></g><g><path fill="none" stroke="#000" stroke-miterlimit="20" stroke-width="1.2" d="M63.838 4687.224v0h120.983v0z"/></g><g><path fill="none" stroke="#fff" stroke-miterlimit="20" stroke-width=".9" d="M38.6 205.531v0h191.426v0z"/></g><g><path fill="none" stroke="#fff" stroke-miterlimit="20" stroke-width=".9" d="M38.6 234.123v0h69.621v0z"/></g></g></svg>