<svg xmlns="http://www.w3.org/2000/svg" width="638" height="822" viewBox="0 0 638 822"><g><g><path fill="#fff" d="M327.227 288.553l-11.008 9.953-11.008-9.953v-5.904l-6.725-6.52 3.541-6.196.456-14.548 8.735 6.956h10.002l8.735-6.956.456 14.548 3.541 6.196-6.725 6.52zm-16.169-25.4l-2.295 1.35 2.315 5.648 4.773 2.498v-5.677zm5.53 3.819v5.677l4.773-2.5 2.32-5.642-2.3-1.353zm16.178 8.563l-2.928-5.121-3.9.175-3.203 2.838zm-12.079 10.882l-4.468-1.551-4.469 1.55 4.47 3.927zm-8.016-14.603l-1.98-1.036-3.023-.136 2.862 2.536zm-9.407-2.107l6.966.314-2.063-5.033zm10.421 2.638l-2.189 13.382 4.355-1.512v-10.736zm7.257 13.382l-2.189-13.381-2.166 1.133v10.736zm1.266-15.706l6.966-.314-4.903-4.72zm-2.44 1.793l2.14 1.364 2.861-2.536-3.02.136zm9.882-2.67l-.372-11.853-4.665 7.005zm-1.648-11.264l-6.007 4.785 2.023 1.197zm-17.56 4.784l-6.006-4.783 3.98 5.973zm-7.283-5.373l-.37 11.855 5.041-4.842zm-.559 13.123l-2.928 5.12 10.031-2.107-3.203-2.838zm-2.9 5.867l7.668 7.436-3.099-8.396zm9.881 12.702l1.096-2.804 2.232-13.644-2.217 1.412-.122.05-5.573 1.17 3.593 9.734.016.016zm.372 1.069l5.898 3.475v-2.528l-4.666-4.1zm6.634 3.475l5.898-3.475-1.227-3.157-4.67 4.104zm7.244-8.61l.017-.017 3.593-9.732-5.573-1.171-.122-.05-2.217-1.412 2.232 13.644 1.096 2.804zm1.238-1.201l7.67-7.435-4.57-.96zm-12.927-20.64l4.077 3.248 4.077-3.247zm-6.196 25.15l3.183 2.878v-.851l-1.188-4.957-1.995-1.934zm10.273 9.288l6.354-5.745v-.915l-6.354 3.744-6.355-3.744v.915zm10.273-9.287v-4.865l-1.995 1.934-1.188 4.957v.85z"/></g><g><path fill="#fff" d="M300.993 266.024l-.523-.336-18.311 28.478h26.72v-.62h-25.581z"/></g><g><path fill="#fff" d="M331.987 265.688l-.523.336 17.695 27.52h-25.58v.623h26.72z"/></g><g><path fill="#fff" d="M316.228 242.328l9.316 14.488.523-.335-9.839-15.294-9.838 15.293.522.336z"/></g><g><path fill="none" stroke="#999" stroke-miterlimit="20" d="M398.358 790.05v0l38.92-105.008v0l131.259-254.82v0l68.255-84.472v0"/></g><g><path fill="none" stroke="#999" stroke-miterlimit="20" d="M398.358 747.57v0l26.987-71.12v0l131.26-252.973v0l41.048-51.072v0l-72.551-102.144v0l-45.344 96.416v0L384.663 492.21v0l-29.96 22.91v0l-89.256-61.572v0l-21.002 35.798v0l-16.705 9.07v48.207l36.752 74.46v0l-13.842 70.641v0l33.412 37.23v0l42.795 30.548v0"/></g><g><path fill="none" stroke="#999" stroke-miterlimit="20" d="M336.566 781.458v0l-63.005-44.39v0l-34.843-7.16v0l-19.092 75.416v0"/></g><g><path fill="none" stroke="#999" stroke-miterlimit="20" d="M201.049 821.075v0l23.35-82.097v0l-23.35 6.205v0l-70.205-15.274v0"/></g><g><path fill="none" stroke="#999" stroke-miterlimit="20" d="M94.411 698.62v0l129.987 27.947v0l-20.047 5.728v0l-95.674-20.005v0"/></g><g><path fill="none" stroke="#999" stroke-miterlimit="20" d="M74.712 595.684v0l-8.78-137.84v0L.54 452.116v0"/></g><g><path fill="none" stroke="#999" stroke-miterlimit="20" d="M11.042 445.433v0l57.754 6.682v0l11.455-3.34v0l-7.636-45.344v0l19.569-89.734v0L.541 296.992v0"/></g><g><path fill="none" stroke="#999" stroke-miterlimit="20" d="M20.11 293.65v0l72.074 13.365v0l-2.386-92.121v0l-23.865-3.818v0"/></g><g><path fill="none" stroke="#999" stroke-miterlimit="20" d="M60.682 202.484v0l198.083 23.388v0l33.635 1.178v0l35.38-49.95v0l-58.841-11.161v0l-141.144-28.191v0"/></g><g><path fill="none" stroke="#999" stroke-miterlimit="20" d="M115.308 128.098v0l173.497 34.245v0l42.949 8.325v0l48.625-68.112v0l-28.76-29.705v0"/></g><g><path fill="none" stroke="#999" stroke-miterlimit="20" d="M364.675 74.554v0l19.677 21.38v0l62.57-86.617v0"/></g><g><path fill="none" stroke="#999" stroke-miterlimit="20" d="M467.532-.03v0L391.73 105.393v0l52.03 53.165v0l80.064-79.295v0"/></g><g><path fill="none" stroke="#999" stroke-miterlimit="20" d="M511.327 99.652v0L448.3 163.668v0l79.276 97.817v0l73.788 104.817v0l14.379-17.028v0"/></g><g><path fill="none" stroke="#999" stroke-miterlimit="20" d="M388.245 110.873v0l24.452 24.216v0l-2.982 18.724v0l-59.417 11.734v0l37.947-54.674v0z"/></g><g><path fill="none" stroke="#999" stroke-miterlimit="20" d="M417.953 142.579v0l15.48 14.729v0l-15.48-2.996v0-11.733 0z"/></g><g><path fill="none" stroke="#999" stroke-miterlimit="20" d="M344.805 173.536v0l67.891-13.231v0l28.974 6.615v0l61.415 74.022v0l-28.21 19.223v0l-34.453 77.642v0l6.5 2.996v0l34.443-76.643v0l26.213-17.477v0l12.982 17.226v0l-45.936 95.867v0l-97.114 128.82v0l-22.968 17.476v0l-90.874-62.413v0l-23.467 38.945v0l-12.462 8.24v0l-9.008-68.406v0l50.68-141.053v0l75.394-107.85v0z"/></g><g><path fill="none" stroke="#999" stroke-miterlimit="20" d="M97.064 216.347v0l158.777 18.201v0l31.133.958v0l-27.78 40.233v0l-17.962 49.333v0l-47.001-.958v0l-94.054-15.566v0l-3.113-92.2v0z"/></g><g><path fill="none" stroke="#999" stroke-miterlimit="20" d="M201.239 331.778v0l37.359 1.41v0l-30.893 87.198v3.832l-17.178-5.268v0l-7.728-30.415v0l18.44-56.757v0z"/></g><g><path fill="none" stroke="#999" stroke-miterlimit="20" d="M99.22 315.254v0l93.876 16.524v0l-17.482 57.236v0l5.987 31.372v0l-94.356 25.386v0l-6.994-43.107v0l18.968-87.411v0z"/></g><g><path fill="none" stroke="#999" stroke-miterlimit="20" d="M78.086 542.048v0l-5.928-84.063v0l116.149-32.33v0l19.637 6.466v0l6.989 60.35v58.673l37.076 71.605v0l-18.201 92.92v0l-93.785-19.42v0"/></g><g><path fill="none" stroke="#999" stroke-miterlimit="20" d="M247.583 706.875v0l13.78 15.71v0l-15.969-3.476v0l2.19-12.234v0z"/></g><g><path fill="none" stroke="#fff" stroke-miterlimit="20" d="M186.047 644.991v0l-8.724-3.617v0l-7.588-8.298v0l4.68-11.913v0l8.015-4.54v0h3.617v0"/></g><g><path fill="none" stroke="#fff" stroke-miterlimit="20" d="M174.416 621.163v0l-3.405-2.413v0l-.354-3.972v0l3.759-3.971v0l4.184-.781v0l4.185 2.766v3.475"/></g><g><path fill="none" stroke="#fff" stroke-miterlimit="20" d="M177.89 625.416v0h5.888v2.128l-2.944 4.61v0l2.944 7.59v0h2.269v0"/></g><g><path fill="none" stroke="#fff" stroke-miterlimit="20" d="M186.047 644.991v0l8.723-3.617v0l7.589-8.298v0l-4.681-11.913v0l-8.014-4.54v0h-3.617v0"/></g><g><path fill="none" stroke="#fff" stroke-miterlimit="20" d="M197.678 621.163v0l3.405-2.413v0l.354-3.972v0l-3.76-3.971v0l-4.183-.781v0l-4.184 2.766v3.475"/></g><g><path fill="none" stroke="#fff" stroke-miterlimit="20" d="M194.203 625.416v0h-5.886v2.128l2.943 4.61v0l-2.943 7.59v0h-2.27v0"/></g><g><path fill="none" stroke="#fff" stroke-miterlimit="20" d="M187.82 631.232v0h-3.76v0l1.987 3.333v0l1.773-3.333v0z"/></g><g><path fill="none" stroke="#fff" stroke-miterlimit="20" d="M173.907 656.776v0-1.667 0h6.217v0l-6.217 9.924v0h6.217v0-1.484 0"/></g><g><path fill="none" stroke="#fff" stroke-miterlimit="20" d="M189.402 665.033v0h-6.217v0-9.923 0h6.217v0z"/></g><g><path fill="none" stroke="#fff" stroke-miterlimit="20" d="M198.679 665.033v0h-6.217v0-9.923 0h6.217v0z"/></g><g><path fill="none" stroke="#fff" stroke-miterlimit="20" d="M163.378 650.436v0h49.713v0l-5.38 4.673v0l3.818 1.834v0l-4.685 5.812v0l6.247 6.681v0h-52.836v0l3.383-7.288v0l-5.292-4.338v0l4.51-3.47v0l-1.994-3.904v0h2.516v0z"/></g><g><path fill="none" stroke="#fff" stroke-miterlimit="20" d="M345.016 723.373v0l-8.181-20.61v0l-6.854 11.995v0l-6.854-11.995v0l-8.182 20.61v0h-2.36v3.134h12.29v0-3.134 0h-1.831v0l1.832-5.05v0l5.105 8.375v0l5.105-8.375v0l1.832 5.05v0h-1.832v3.134h12.289v0-3.134 0h-2.36v0z"/></g><g><path fill="none" stroke="#fff" stroke-miterlimit="20" d="M177.54 774.09v0l-8.181-20.61v0l-6.854 11.995v0l-6.855-11.995v0l-8.181 20.61v0h-2.359v3.134h12.29v0-3.134 0h-1.832v0l1.832-5.05v0l5.105 8.375v0l5.105-8.375v0l1.832 5.05v0h-1.832v3.134h12.289v0-3.134 0h-2.359v0z"/></g><g><g><text dominant-baseline="text-before-edge" transform="translate(285 672)"><tspan fill="#fff" font-family="'Circe Light','Circe-Light'" font-size="16.97">Баррикадная</tspan></text></g></g><g><g><text dominant-baseline="text-before-edge" transform="translate(268 378)"><tspan fill="#fff" font-family="'Circe Light','Circe-Light'" font-size="16.97">бизнес-центр</tspan></text></g></g><g><g><text dominant-baseline="text-before-edge" transform="translate(275 399)"><tspan fill="#fff" font-family="'Circe Light','Circe-Light'" font-size="16.97">Грузинка 30</tspan></text></g></g><g><g><text dominant-baseline="text-before-edge" transform="translate(93 785)"><tspan fill="#fff" font-family="'Circe Light','Circe-Light'" font-size="16.97">Краснопресненская</tspan></text></g></g><g><path fill="none" stroke="#fff" stroke-miterlimit="20" d="M305.366 311.913v0h-18.278v0l-9.044 11.817v0h76.925v0l-9.043-11.817v0h-18.854v0"/></g><g><path fill="none" stroke="#fff" stroke-miterlimit="20" d="M296.217 323.73v0-6.354 0l20.29-12.152v0l19.733 12.597v5.91"/></g><g><path fill="none" stroke="#fff" stroke-miterlimit="20" d="M287.41 323.73v33.557"/></g><g><path fill="none" stroke="#fff" stroke-miterlimit="20" d="M291.027 323.73v33.557"/></g><g><path fill="none" stroke="#fff" stroke-miterlimit="20" d="M296.243 323.73v33.557"/></g><g><path fill="none" stroke="#fff" stroke-miterlimit="20" d="M299.86 323.73v33.557"/></g><g><path fill="none" stroke="#fff" stroke-miterlimit="20" d="M305.366 323.73v33.557"/></g><g><path fill="none" stroke="#fff" stroke-miterlimit="20" d="M308.983 323.73v33.557"/></g><g><path fill="none" stroke="#fff" stroke-miterlimit="20" d="M314.49 323.73v33.557"/></g><g><path fill="none" stroke="#fff" stroke-miterlimit="20" d="M318.107 323.73v33.557"/></g><g><path fill="none" stroke="#fff" stroke-miterlimit="20" d="M296.217 323.73v33.557"/></g><g><path fill="none" stroke="#fff" stroke-miterlimit="20" d="M327.072 323.73v33.557"/></g><g><path fill="none" stroke="#fff" stroke-miterlimit="20" d="M332.578 323.73v33.557"/></g><g><path fill="none" stroke="#fff" stroke-miterlimit="20" d="M336.195 323.73v33.557"/></g><g><path fill="none" stroke="#fff" stroke-miterlimit="20" d="M341.701 323.73v33.557"/></g><g><path fill="none" stroke="#fff" stroke-miterlimit="20" d="M345.318 323.73v33.557"/></g><g><path fill="none" stroke="#fff" stroke-miterlimit="20" d="M323.428 323.73v33.557"/></g><g><path fill="none" stroke="#fff" stroke-miterlimit="20" d="M279.557 361.111v0h5.854v0-3.824 0h61.911v3.824h5.168v5.484h-72.933v0-5.484 0z"/></g><g><g><text dominant-baseline="text-before-edge" transform="translate(350 64)"><tspan fill="#fff" font-family="'Circe Light','Circe-Light'" font-size="9.51">ул. Большая Грузинская</tspan></text></g></g><g><g><text dominant-baseline="text-before-edge" transform="translate(211 539)"><tspan fill="#fff" font-family="'Circe Light','Circe-Light'" font-size="9.51">ул. Большая Грузинская</tspan></text></g></g><g><g><text dominant-baseline="text-before-edge" transform="translate(467 196)"><tspan fill="#fff" font-family="'Circe Light','Circe-Light'" font-size="7.61">ул. Красина</tspan></text></g></g><g><g><text dominant-baseline="text-before-edge" transform="translate(395 418)"><tspan fill="#fff" font-family="'Circe Light','Circe-Light'" font-size="7.61">ул. Зоологическая</tspan></text></g></g><g><g><text dominant-baseline="text-before-edge" transform="translate(98 425)"><tspan fill="#fff" font-family="'Circe Light','Circe-Light'" font-size="7.61">пер. Зоологический</tspan></text></g></g><g><g><text dominant-baseline="text-before-edge" transform="translate(121 311)"><tspan fill="#fff" font-family="'Circe Light','Circe-Light'" font-size="7.61">ул. Климашкина</tspan></text></g></g><g><g><text dominant-baseline="text-before-edge" transform="translate(155 214)"><tspan fill="#fff" font-family="'Circe Light','Circe-Light'" font-size="7.61">пер. Большой Тишинский</tspan></text></g></g><g><g><text dominant-baseline="text-before-edge" transform="translate(196 143)"><tspan fill="#fff" font-family="'Circe Light','Circe-Light'" font-size="7.61">пер. Средний Тишинский</tspan></text></g></g><g><g><text dominant-baseline="text-before-edge" transform="translate(131 694)"><tspan fill="#fff" font-family="'Circe Light','Circe-Light'" font-size="9.51">ул. Красная Пресня</tspan></text></g></g><g><g><text dominant-baseline="text-before-edge" transform="translate(469 504)"><tspan fill="#fff" font-family="'Circe Light','Circe-Light'" font-size="9.51">Большое садовое кольцо</tspan></text></g></g><g><path fill="none" stroke="#fff" stroke-miterlimit="20" d="M175.438 618.535v0l-2.536-2.59v0l2.266-2.59v0l2.806-.702v0"/></g><g><path fill="none" stroke="#fff" stroke-miterlimit="20" d="M196.053 612.923v0l2.482 1.997v2.158l-1.241.81v0"/></g><g><g><text dominant-baseline="text-before-edge" transform="translate(41 411)"><tspan font-family="'Myriad Pro','MyriadPro-Regular'" font-size="12">dbhnefkmysq neh</tspan></text></g></g></g></svg>