<svg xmlns="http://www.w3.org/2000/svg" width="18" height="18" viewBox="0 0 18 18"><g><g><path fill="none" stroke="#fff" stroke-miterlimit="20" d="M13.18 11.984a1.002 1.002 0 0 0-.714-.282c-.294 0-.577.115-.776.314l-1.264 1.264v0l-.342-.19c-.751-.416-1.78-.987-2.867-2.075-1.092-1.09-1.663-2.122-2.081-2.877l-.187-.332v0L6.215 6.54c.419-.421.433-1.09.03-1.492L3.908 2.71a.997.997 0 0 0-.714-.283c-.293 0-.575.116-.776.315l-.574.578v0l-.054.089a3.626 3.626 0 0 0-.52.918 3.8 3.8 0 0 0-.232.929c-.301 2.507.854 4.808 3.99 7.943 3.717 3.716 6.822 4.005 7.686 4.005.148 0 .237-.008.262-.011a3.85 3.85 0 0 0 .932-.234c.332-.13.64-.304.914-.518l.13-.103v0l.538-.527c.418-.418.43-1.086.03-1.488l-2.338-2.34v0z"/></g><g><path fill="none" stroke="#fff" stroke-miterlimit="20" d="M12.554 9.278v0l-.11-.461A4.075 4.075 0 0 0 9.51 5.804l-.322-.085v0"/></g><g><path fill="none" stroke="#fff" stroke-miterlimit="20" d="M14.876 9.524v0l-.038-.387a6.367 6.367 0 0 0-5.331-5.7l-.465-.08v0"/></g><g><path fill="none" stroke="#fff" stroke-miterlimit="20" d="M17.39 9.418v0l-.027-.34a8.948 8.948 0 0 0-2.582-5.641 8.933 8.933 0 0 0-5.816-2.6L8.538.81v0"/></g></g></svg>