<svg xmlns="http://www.w3.org/2000/svg" width="18" height="18" viewBox="0 0 18 18"><g><g><path fill="none" stroke="#fff" stroke-miterlimit="20" d="M14.31 3.175a7.858 7.858 0 0 0-12.677 8.882c.376.806-1.348 3.81-.681 4.477.667.668 3.67-1.057 4.478-.68A7.858 7.858 0 0 0 14.31 3.175z"/></g><g><path fill="none" stroke="#fff" stroke-miterlimit="20" d="M12.925 12.352v0l-.32.314v0l-.078.061a2.272 2.272 0 0 1-1.099.448c-.015.001-.068.006-.156.006-.514 0-2.364-.172-4.577-2.384C4.828 8.93 4.14 7.56 4.319 6.067a2.243 2.243 0 0 1 .448-1.1l.032-.053v0l.342-.344a.658.658 0 0 1 .462-.188c.166 0 .317.06.425.168l1.393 1.393a.63.63 0 0 1-.019.888l-.754.754v0l.112.197c.248.45.589 1.064 1.239 1.713.647.65 1.26.99 1.707 1.237l.204.112v0l.753-.752a.655.655 0 0 1 .462-.187c.166 0 .317.06.425.167l1.393 1.394a.628.628 0 0 1-.018.886z"/></g></g></svg>