<svg xmlns="http://www.w3.org/2000/svg" width="72" height="74" viewBox="0 0 72 74"><g><g><path fill="none" stroke="#fff" stroke-miterlimit="20" d="M22.034 71.293v0H1.098v0V1.327v0h69.966v69.966H50.142v0"/></g><g><path fill="#ff3233" d="M12.971 35.069c0 6.593 2.823 13.272 6.495 19.174l10.74-11.772a9.43 9.43 0 0 1-3.578-7.402c0-5.221 4.232-9.453 9.452-9.453a9.423 9.423 0 0 1 6.833 2.925l9.214-10.1A23.033 23.033 0 0 0 36.08 11.96c-12.763 0-23.109 10.346-23.109 23.109z"/></g><g><path fill="#e20000" d="M59.19 35.069a23.044 23.044 0 0 0-7.052-16.618l-9.214 10.1a9.453 9.453 0 0 1-12.707 13.93L19.474 54.256c6.835 10.98 16.607 19.263 16.607 19.263S59.19 53.935 59.19 35.069z"/></g></g></svg>